<svg width="201" height="42" viewBox="0 0 201 42" fill="none" xmlns="http://www.w3.org/2000/svg">
<path opacity="0.5" d="M40.0652 2.25671L30.2601 36.9917C30.2102 37.1494 30.0108 37.1967 29.8945 37.0863L23.3301 30.8583L28.2492 13.4514C28.2991 13.2937 28.1495 13.1518 27.9833 13.1991L9.63617 17.8662L3.10498 11.6697C2.98865 11.5593 3.03851 11.3701 3.20469 11.3228L39.7993 2.00444C39.9655 1.97291 40.115 2.11481 40.0652 2.25671Z" fill="#00B37E"/>
<path opacity="0.5" d="M23.3297 30.858L20.8037 39.8452C20.7538 40.0029 20.5544 40.0502 20.4381 39.9398L0.0634003 20.6251C-0.0529313 20.5147 -0.00307518 20.3255 0.163113 20.2782L9.63583 17.8658L23.3297 30.858Z" fill="#00B37E"/>
<path d="M28.2484 13.4511L23.3292 30.858L9.63533 17.8659L27.9825 13.1988C28.1487 13.1515 28.2982 13.2934 28.2484 13.4511Z" fill="#00B37E"/>
<path d="M72.6312 19.9805V20.8425C72.6312 22.225 72.4439 23.466 72.0691 24.5653C71.6943 25.6647 71.1654 26.6017 70.4825 27.3762C69.7995 28.1424 68.9833 28.7296 68.0339 29.1377C67.0928 29.5458 66.0475 29.7499 64.8982 29.7499C63.7572 29.7499 62.7119 29.5458 61.7625 29.1377C60.8214 28.7296 60.0052 28.1424 59.3139 27.3762C58.6226 26.6017 58.0854 25.6647 57.7023 24.5653C57.3275 23.466 57.1401 22.225 57.1401 20.8425V19.9805C57.1401 18.5896 57.3275 17.3486 57.7023 16.2576C58.0771 15.1582 58.606 14.2213 59.2889 13.4467C59.9802 12.6722 60.7964 12.0808 61.7375 11.6727C62.687 11.2646 63.7322 11.0606 64.8732 11.0606C66.0225 11.0606 67.0678 11.2646 68.0089 11.6727C68.9584 12.0808 69.7746 12.6722 70.4575 13.4467C71.1488 14.2213 71.6818 15.1582 72.0566 16.2576C72.4397 17.3486 72.6312 18.5896 72.6312 19.9805ZM68.8459 20.8425V19.9555C68.8459 18.9894 68.7585 18.1398 68.5836 17.4069C68.4087 16.674 68.1505 16.0577 67.809 15.558C67.4675 15.0583 67.0511 14.6835 66.5597 14.4336C66.0683 14.1755 65.5062 14.0464 64.8732 14.0464C64.2402 14.0464 63.6781 14.1755 63.1867 14.4336C62.7036 14.6835 62.2913 15.0583 61.9499 15.558C61.6167 16.0577 61.3627 16.674 61.1878 17.4069C61.0129 18.1398 60.9255 18.9894 60.9255 19.9555V20.8425C60.9255 21.8002 61.0129 22.6498 61.1878 23.391C61.3627 24.1239 61.6209 24.7444 61.9624 25.2524C62.3038 25.7521 62.7203 26.1311 63.2117 26.3893C63.703 26.6475 64.2652 26.7766 64.8982 26.7766C65.5312 26.7766 66.0933 26.6475 66.5847 26.3893C67.0761 26.1311 67.4884 25.7521 67.8215 25.2524C68.1546 24.7444 68.4087 24.1239 68.5836 23.391C68.7585 22.6498 68.8459 21.8002 68.8459 20.8425ZM78.6278 18.8686V29.5H75.0299V15.9828H78.4029L78.6278 18.8686ZM78.1031 22.2666H77.1287C77.1287 21.2672 77.2578 20.3677 77.5159 19.5682C77.7741 18.7603 78.1364 18.0732 78.6028 17.5069C79.0692 16.9322 79.6231 16.495 80.2644 16.1951C80.914 15.887 81.6386 15.7329 82.4381 15.7329C83.0711 15.7329 83.6499 15.8245 84.1746 16.0077C84.6993 16.191 85.1491 16.4825 85.5239 16.8822C85.907 17.282 86.1985 17.8109 86.3984 18.4688C86.6066 19.1268 86.7107 19.9305 86.7107 20.8799V29.5H83.0878V20.8675C83.0878 20.2678 83.0045 19.8014 82.8379 19.4683C82.6713 19.1351 82.4256 18.9019 82.1008 18.7687C81.7843 18.6271 81.3929 18.5563 80.9265 18.5563C80.4434 18.5563 80.0228 18.6521 79.6647 18.8436C79.3149 19.0352 79.0234 19.3017 78.7902 19.6432C78.5653 19.9763 78.3946 20.3677 78.278 20.8175C78.1614 21.2672 78.1031 21.7503 78.1031 22.2666ZM99.7907 11.3104V29.5H96.0428V11.3104H99.7907ZM107.037 19.081V22.0043H98.7663V19.081H107.037ZM107.911 11.3104V14.2462H98.7663V11.3104H107.911ZM113.658 15.9828V29.5H110.047V15.9828H113.658ZM109.822 12.4598C109.822 11.9351 110.006 11.502 110.372 11.1605C110.739 10.819 111.23 10.6483 111.846 10.6483C112.454 10.6483 112.941 10.819 113.308 11.1605C113.683 11.502 113.87 11.9351 113.87 12.4598C113.87 12.9845 113.683 13.4176 113.308 13.759C112.941 14.1005 112.454 14.2712 111.846 14.2712C111.23 14.2712 110.739 14.1005 110.372 13.759C110.006 13.4176 109.822 12.9845 109.822 12.4598ZM120.154 18.8686V29.5H116.556V15.9828H119.929L120.154 18.8686ZM119.629 22.2666H118.655C118.655 21.2672 118.784 20.3677 119.042 19.5682C119.3 18.7603 119.663 18.0732 120.129 17.5069C120.595 16.9322 121.149 16.495 121.791 16.1951C122.44 15.887 123.165 15.7329 123.964 15.7329C124.597 15.7329 125.176 15.8245 125.701 16.0077C126.226 16.191 126.675 16.4825 127.05 16.8822C127.433 17.282 127.725 17.8109 127.925 18.4688C128.133 19.1268 128.237 19.9305 128.237 20.8799V29.5H124.614V20.8675C124.614 20.2678 124.531 19.8014 124.364 19.4683C124.198 19.1351 123.952 18.9019 123.627 18.7687C123.311 18.6271 122.919 18.5563 122.453 18.5563C121.97 18.5563 121.549 18.6521 121.191 18.8436C120.841 19.0352 120.55 19.3017 120.316 19.6432C120.092 19.9763 119.921 20.3677 119.804 20.8175C119.688 21.2672 119.629 21.7503 119.629 22.2666ZM134.496 18.8686V29.5H130.898V15.9828H134.271L134.496 18.8686ZM133.971 22.2666H132.997C132.997 21.2672 133.126 20.3677 133.384 19.5682C133.642 18.7603 134.004 18.0732 134.471 17.5069C134.937 16.9322 135.491 16.495 136.132 16.1951C136.782 15.887 137.507 15.7329 138.306 15.7329C138.939 15.7329 139.518 15.8245 140.043 16.0077C140.567 16.191 141.017 16.4825 141.392 16.8822C141.775 17.282 142.066 17.8109 142.266 18.4688C142.475 19.1268 142.579 19.9305 142.579 20.8799V29.5H138.956V20.8675C138.956 20.2678 138.872 19.8014 138.706 19.4683C138.539 19.1351 138.294 18.9019 137.969 18.7687C137.652 18.6271 137.261 18.5563 136.794 18.5563C136.311 18.5563 135.891 18.6521 135.533 18.8436C135.183 19.0352 134.891 19.3017 134.658 19.6432C134.433 19.9763 134.263 20.3677 134.146 20.8175C134.029 21.2672 133.971 21.7503 133.971 22.2666ZM152.61 26.4517V20.4302C152.61 19.9971 152.54 19.6265 152.398 19.3183C152.256 19.0019 152.036 18.7562 151.736 18.5813C151.444 18.4064 151.065 18.3189 150.599 18.3189C150.199 18.3189 149.854 18.3897 149.562 18.5313C149.271 18.6645 149.046 18.8603 148.888 19.1185C148.729 19.3683 148.65 19.664 148.65 20.0054H145.052C145.052 19.4308 145.185 18.8853 145.452 18.3689C145.718 17.8525 146.106 17.3986 146.614 17.0072C147.122 16.6074 147.726 16.2951 148.425 16.0702C149.133 15.8453 149.924 15.7329 150.799 15.7329C151.848 15.7329 152.781 15.9078 153.597 16.2576C154.414 16.6074 155.055 17.1321 155.521 17.8317C155.996 18.5313 156.233 19.4058 156.233 20.4552V26.2394C156.233 26.9806 156.279 27.5886 156.371 28.0633C156.462 28.5297 156.596 28.9378 156.77 29.2876V29.5H153.135C152.96 29.1335 152.827 28.6755 152.735 28.1258C152.652 27.5678 152.61 27.0098 152.61 26.4517ZM153.085 21.2672L153.11 23.3036H151.099C150.624 23.3036 150.212 23.3577 149.862 23.466C149.512 23.5742 149.225 23.7283 149 23.9282C148.775 24.1198 148.609 24.3446 148.5 24.6028C148.4 24.861 148.35 25.1442 148.35 25.4523C148.35 25.7605 148.421 26.0395 148.563 26.2893C148.704 26.5309 148.908 26.7224 149.175 26.864C149.441 26.9973 149.754 27.0639 150.112 27.0639C150.653 27.0639 151.124 26.9556 151.523 26.7391C151.923 26.5225 152.231 26.256 152.448 25.9395C152.673 25.6231 152.789 25.3232 152.798 25.0401L153.747 26.5642C153.614 26.9057 153.431 27.2596 153.198 27.6261C152.973 27.9925 152.685 28.3382 152.336 28.663C151.986 28.9795 151.565 29.2418 151.074 29.45C150.582 29.6499 149.999 29.7499 149.325 29.7499C148.467 29.7499 147.688 29.5791 146.989 29.2377C146.297 28.8879 145.748 28.409 145.34 27.801C144.94 27.1847 144.74 26.4851 144.74 25.7022C144.74 24.9943 144.873 24.3654 145.14 23.8158C145.406 23.2661 145.798 22.8038 146.314 22.4291C146.839 22.0459 147.492 21.7586 148.275 21.5671C149.058 21.3672 149.966 21.2672 150.999 21.2672H153.085ZM162.53 18.8686V29.5H158.932V15.9828H162.305L162.53 18.8686ZM162.005 22.2666H161.031C161.031 21.2672 161.16 20.3677 161.418 19.5682C161.676 18.7603 162.038 18.0732 162.505 17.5069C162.971 16.9322 163.525 16.495 164.166 16.1951C164.816 15.887 165.54 15.7329 166.34 15.7329C166.973 15.7329 167.552 15.8245 168.077 16.0077C168.601 16.191 169.051 16.4825 169.426 16.8822C169.809 17.282 170.1 17.8109 170.3 18.4688C170.508 19.1268 170.613 19.9305 170.613 20.8799V29.5H166.99V20.8675C166.99 20.2678 166.906 19.8014 166.74 19.4683C166.573 19.1351 166.328 18.9019 166.003 18.7687C165.686 18.6271 165.295 18.5563 164.828 18.5563C164.345 18.5563 163.925 18.6521 163.567 18.8436C163.217 19.0352 162.925 19.3017 162.692 19.6432C162.467 19.9763 162.296 20.3677 162.18 20.8175C162.063 21.2672 162.005 21.7503 162.005 22.2666ZM178.933 26.939C179.374 26.939 179.766 26.8557 180.107 26.6891C180.449 26.5142 180.715 26.2727 180.907 25.9645C181.107 25.648 181.211 25.2774 181.219 24.8527H184.605C184.596 25.8021 184.342 26.6475 183.842 27.3887C183.343 28.1216 182.672 28.7005 181.831 29.1252C180.99 29.5416 180.049 29.7499 179.008 29.7499C177.958 29.7499 177.042 29.575 176.259 29.2252C175.485 28.8754 174.839 28.3923 174.323 27.776C173.807 27.1513 173.419 26.4268 173.161 25.6022C172.903 24.7694 172.774 23.8782 172.774 22.9288V22.5665C172.774 21.6087 172.903 20.7175 173.161 19.893C173.419 19.0602 173.807 18.3356 174.323 17.7193C174.839 17.0946 175.485 16.6074 176.259 16.2576C177.034 15.9078 177.942 15.7329 178.983 15.7329C180.09 15.7329 181.061 15.9453 181.894 16.37C182.735 16.7948 183.393 17.4028 183.867 18.194C184.351 18.9769 184.596 19.9055 184.605 20.9799H181.219C181.211 20.5301 181.115 20.122 180.932 19.7556C180.757 19.3891 180.499 19.0976 180.157 18.8811C179.824 18.6562 179.412 18.5438 178.92 18.5438C178.396 18.5438 177.967 18.6562 177.634 18.8811C177.3 19.0976 177.042 19.3975 176.859 19.7806C176.676 20.1554 176.547 20.5843 176.472 21.0673C176.405 21.5421 176.372 22.0418 176.372 22.5665V22.9288C176.372 23.4535 176.405 23.9573 176.472 24.4404C176.538 24.9235 176.663 25.3524 176.846 25.7272C177.038 26.1019 177.3 26.3976 177.634 26.6142C177.967 26.8307 178.4 26.939 178.933 26.939ZM192.912 29.7499C191.863 29.7499 190.922 29.5833 190.089 29.2501C189.256 28.9087 188.548 28.4381 187.965 27.8385C187.39 27.2388 186.949 26.5434 186.641 25.7521C186.333 24.9526 186.179 24.1031 186.179 23.2036V22.7039C186.179 21.6795 186.324 20.7425 186.616 19.893C186.907 19.0435 187.324 18.3064 187.865 17.6818C188.415 17.0571 189.081 16.5782 189.864 16.2451C190.647 15.9036 191.53 15.7329 192.512 15.7329C193.47 15.7329 194.32 15.8911 195.061 16.2076C195.802 16.5241 196.423 16.9739 196.922 17.5569C197.43 18.1398 197.814 18.8394 198.072 19.6556C198.33 20.4635 198.459 21.363 198.459 22.3541V23.8532H187.715V21.4546H194.924V21.1798C194.924 20.6801 194.832 20.2345 194.649 19.843C194.474 19.4433 194.207 19.1268 193.849 18.8936C193.491 18.6604 193.033 18.5438 192.475 18.5438C192 18.5438 191.592 18.6479 191.251 18.8561C190.909 19.0643 190.63 19.3558 190.414 19.7306C190.205 20.1054 190.047 20.5468 189.939 21.0548C189.839 21.5546 189.789 22.1042 189.789 22.7039V23.2036C189.789 23.745 189.864 24.2447 190.014 24.7028C190.172 25.1608 190.393 25.5564 190.676 25.8896C190.968 26.2227 191.317 26.4809 191.725 26.6641C192.142 26.8474 192.612 26.939 193.137 26.939C193.787 26.939 194.391 26.814 194.949 26.5642C195.515 26.306 196.002 25.9187 196.41 25.4024L198.159 27.3013C197.876 27.7094 197.489 28.1008 196.997 28.4756C196.514 28.8504 195.931 29.1585 195.248 29.4001C194.565 29.6333 193.787 29.7499 192.912 29.7499Z" fill="#E1E1E6"/>
</svg>

